<svg width="256" height="256" viewBox="0 0 256 256" fill="none" xmlns="http://www.w3.org/2000/svg">
  <!-- Background matches Monokai surface -->
  <rect width="256" height="256" rx="64" fill="#272822" />
  
  <!-- Outer border -->
  <rect x="8" y="8" width="240" height="240" rx="56" fill="none" stroke="#3E3D32" stroke-width="8" />

  <!-- Ghost / Headless Bot Character -->
  <!-- Top Dome -->
  <path d="M128 56C88 56 64 88 64 128V192C64 200 70 200 75 195L86 185L98 195C102 199 106 199 110 195L122 185L134 195C138 199 142 199 146 195L158 185L170 195C174 199 178 199 181 195L192 185C198 180 192 192 192 192V128C192 88 168 56 128 56Z" fill="#F8F8F2" />
  
  <!-- Eyes Container (Visor) -->
  <rect x="84" y="100" width="88" height="32" rx="16" fill="#1E1F1C" />
  
  <!-- Eyes -->
  <circle cx="106" cy="116" r="8" fill="#F92672" /> <!-- Monokai Pink -->
  <circle cx="150" cy="116" r="8" fill="#A6E22E" /> <!-- Monokai Green -->
  
  <!-- Brain / Command node in forehead -->
  <rect x="120" y="80" width="16" height="8" rx="4" fill="#66D9EF" />
</svg>
